<svg xmlns="http://www.w3.org/2000/svg" width="200" height="200" viewBox="0 0 200 200" role="img" aria-label="Forge IDE mark">

  <defs>
    <linearGradient id="trans_stripe" x1="0%" y1="0%" x2="100%" y2="0%">
      <stop offset="0%" stop-color="#ff4a12"/>
      <stop offset="100%" stop-color="#ffaa33"/>
    </linearGradient>
  </defs>
<line x1="100.00" y1="100.00" x2="100.00" y2="20.00" stroke="#ffd166" stroke-width="4" opacity="0.9" stroke-linecap="round"/>
<line x1="100.00" y1="100.00" x2="23.92" y2="75.28" stroke="#ff4a12" stroke-width="4" opacity="0.8" stroke-linecap="round"/>
<line x1="100.00" y1="100.00" x2="176.08" y2="75.28" stroke="#ff4a12" stroke-width="4" opacity="0.8" stroke-linecap="round"/>
<line x1="100.00" y1="100.00" x2="52.98" y2="164.72" stroke="#ff7a30" stroke-width="4" opacity="0.65" stroke-linecap="round"/>
<line x1="100.00" y1="100.00" x2="147.02" y2="164.72" stroke="#ff7a30" stroke-width="4" opacity="0.65" stroke-linecap="round"/>
<circle cx="100.00" cy="20.00" r="9.20" fill="#07080a" stroke="#ffd166" stroke-width="3.40" opacity="1.0"/>
<circle cx="23.92" cy="75.28" r="9.20" fill="#07080a" stroke="#ff4a12" stroke-width="3.40" opacity="0.9"/>
<circle cx="176.08" cy="75.28" r="9.20" fill="#07080a" stroke="#ff4a12" stroke-width="3.40" opacity="0.9"/>
<circle cx="52.98" cy="164.72" r="9.20" fill="#07080a" stroke="#ff7a30" stroke-width="3.40" opacity="0.75"/>
<circle cx="147.02" cy="164.72" r="9.20" fill="#07080a" stroke="#ff7a30" stroke-width="3.40" opacity="0.75"/>
<circle cx="100.00" cy="100.00" r="24.00" fill="#0c1018" stroke="#1e2838" stroke-width="2.40"/>

  <!-- Handle (below head) -->
  <rect x="94.54" y="107.68" width="10.92" height="21.60" rx="2.73" fill="#2a2018"/>
  <!-- Hammer head -->
  <rect x="78.16" y="88.48" width="43.68" height="19.20" rx="3.06" fill="#4a5668"/>
  <!-- Top bevel -->
  <rect x="78.16" y="88.48" width="43.68" height="5.38" rx="2.62" fill="#8a9aac"/>
  <!-- Ember strike stripe (bottom of head) -->
  <rect x="78.16" y="103.07" width="43.68" height="4.61" rx="2.18" fill="url(#trans_stripe)"/>
</svg>